<?xml version="1.0" encoding="UTF-8" standalone="no"?>
<!DOCTYPE svg PUBLIC "-//W3C//DTD SVG 1.1//EN"
 "http://www.w3.org/Graphics/SVG/1.1/DTD/svg11.dtd">
<!-- Generated by graphviz version 2.42.4 (0)
 -->
<!-- Title: ERD Pages: 1 -->
<svg width="1557pt" height="1879pt"
 viewBox="0.00 0.00 1557.00 1878.50" xmlns="http://www.w3.org/2000/svg" xmlns:xlink="http://www.w3.org/1999/xlink">
<g id="graph0" class="graph" transform="scale(1 1) rotate(0) translate(4 1874.5)">
<title>ERD</title>
<polygon fill="white" stroke="transparent" points="-4,4 -4,-1874.5 1553,-1874.5 1553,4 -4,4"/>
<!-- user -->
<g id="node1" class="node">
<title>user</title>
<polygon fill="#2f5d8c" stroke="transparent" points="1,-1061.5 1,-1088.5 91,-1088.5 91,-1061.5 1,-1061.5"/>
<text text-anchor="start" x="7" y="-1072.3" font-family="Helvetica,sans-Serif" font-weight="bold" font-size="14.00" fill="white">auth_user</text>
<text text-anchor="start" x="7" y="-1044.3" font-family="Helvetica,sans-Serif" font-size="14.00">id (PK)</text>
<text text-anchor="start" x="7" y="-1017.3" font-family="Helvetica,sans-Serif" font-size="14.00">username</text>
<text text-anchor="start" x="7" y="-990.3" font-family="Helvetica,sans-Serif" font-size="14.00">...</text>
<polygon fill="none" stroke="black" points="0,-979.5 0,-1089.5 92,-1089.5 92,-979.5 0,-979.5"/>
</g>
<!-- images -->
<g id="node2" class="node">
<title>images</title>
<polygon fill="#6c8ebf" stroke="transparent" points="249,-1243.5 249,-1270.5 344,-1270.5 344,-1243.5 249,-1243.5"/>
<text text-anchor="start" x="267.5" y="-1254.3" font-family="Helvetica,sans-Serif" font-weight="bold" font-size="14.00" fill="white">Images</text>
<text text-anchor="start" x="255" y="-1226.3" font-family="Helvetica,sans-Serif" font-size="14.00">id (PK)</text>
<text text-anchor="start" x="255" y="-1199.3" font-family="Helvetica,sans-Serif" font-size="14.00">name</text>
<text text-anchor="start" x="255" y="-1172.3" font-family="Helvetica,sans-Serif" font-size="14.00">url</text>
<text text-anchor="start" x="255" y="-1145.3" font-family="Helvetica,sans-Serif" font-size="14.00">user_id (FK)</text>
<polygon fill="none" stroke="black" points="247.5,-1135 247.5,-1272 344.5,-1272 344.5,-1135 247.5,-1135"/>
</g>
<!-- user&#45;&gt;images -->
<g id="edge1" class="edge">
<title>user&#45;&gt;images</title>
<path fill="none" stroke="#555555" d="M100.15,-1082.95C100.15,-1082.95 296,-1082.95 296,-1082.95 296,-1082.95 296,-1107.7 296,-1134.77"/>
<polygon fill="#555555" stroke="#555555" points="100.15,-1080.15 92.15,-1082.95 100.15,-1085.75 100.15,-1080.15"/>
<text text-anchor="middle" x="157.5" y="-1175.3" font-family="Helvetica,sans-Serif" font-size="14.00">creates</text>
<text text-anchor="middle" x="290.5" y="-1123.57" font-family="Helvetica,sans-Serif" font-size="14.00">N</text>
<text text-anchor="middle" x="97.15" y="-1086.75" font-family="Helvetica,sans-Serif" font-size="14.00">1</text>
</g>
<!-- category -->
<g id="node3" class="node">
<title>category</title>
<polygon fill="#6c8ebf" stroke="transparent" points="627.5,-1444.5 627.5,-1471.5 734.5,-1471.5 734.5,-1444.5 627.5,-1444.5"/>
<text text-anchor="start" x="644.5" y="-1455.3" font-family="Helvetica,sans-Serif" font-weight="bold" font-size="14.00" fill="white">Category</text>
<text text-anchor="start" x="633.5" y="-1427.3" font-family="Helvetica,sans-Serif" font-size="14.00">id (PK)</text>
<text text-anchor="start" x="633.5" y="-1400.3" font-family="Helvetica,sans-Serif" font-size="14.00">title</text>
<text text-anchor="start" x="633.5" y="-1373.3" font-family="Helvetica,sans-Serif" font-size="14.00">slug</text>
<text text-anchor="start" x="633.5" y="-1346.3" font-family="Helvetica,sans-Serif" font-size="14.00">image_id (FK)</text>
<text text-anchor="start" x="633.5" y="-1319.3" font-family="Helvetica,sans-Serif" font-size="14.00">is_featured</text>
<text text-anchor="start" x="633.5" y="-1292.3" font-family="Helvetica,sans-Serif" font-size="14.00">description</text>
<text text-anchor="start" x="633.5" y="-1265.3" font-family="Helvetica,sans-Serif" font-size="14.00">user_id (FK)</text>
<polygon fill="none" stroke="black" points="626,-1254.5 626,-1472.5 735,-1472.5 735,-1254.5 626,-1254.5"/>
</g>
<!-- user&#45;&gt;category -->
<g id="edge2" class="edge">
<title>user&#45;&gt;category</title>
<path fill="none" stroke="#555555" d="M100.18,-1076.4C100.18,-1076.4 681,-1076.4 681,-1076.4 681,-1076.4 681,-1173.01 681,-1254.14"/>
<polygon fill="#555555" stroke="#555555" points="100.18,-1073.6 92.18,-1076.4 100.18,-1079.2 100.18,-1073.6"/>
<text text-anchor="middle" x="296" y="-1357.3" font-family="Helvetica,sans-Serif" font-size="14.00">changes</text>
<text text-anchor="middle" x="675.5" y="-1242.94" font-family="Helvetica,sans-Serif" font-size="14.00">N</text>
<text text-anchor="middle" x="97.18" y="-1065.2" font-family="Helvetica,sans-Serif" font-size="14.00">1</text>
</g>
<!-- product -->
<g id="node4" class="node">
<title>product</title>
<polygon fill="#6c8ebf" stroke="transparent" points="993,-1484.5 993,-1511.5 1118,-1511.5 1118,-1484.5 993,-1484.5"/>
<text text-anchor="start" x="1024.5" y="-1495.3" font-family="Helvetica,sans-Serif" font-weight="bold" font-size="14.00" fill="white">Product</text>
<text text-anchor="start" x="999" y="-1467.3" font-family="Helvetica,sans-Serif" font-size="14.00">id (PK)</text>
<text text-anchor="start" x="999" y="-1440.3" font-family="Helvetica,sans-Serif" font-size="14.00">title</text>
<text text-anchor="start" x="999" y="-1413.3" font-family="Helvetica,sans-Serif" font-size="14.00">slug</text>
<text text-anchor="start" x="999" y="-1386.3" font-family="Helvetica,sans-Serif" font-size="14.00">sku</text>
<text text-anchor="start" x="999" y="-1359.3" font-family="Helvetica,sans-Serif" font-size="14.00">stock</text>
<text text-anchor="start" x="999" y="-1332.3" font-family="Helvetica,sans-Serif" font-size="14.00">price</text>
<text text-anchor="start" x="999" y="-1305.3" font-family="Helvetica,sans-Serif" font-size="14.00">sales_price</text>
<text text-anchor="start" x="999" y="-1278.3" font-family="Helvetica,sans-Serif" font-size="14.00">image_id (FK)</text>
<text text-anchor="start" x="999" y="-1251.3" font-family="Helvetica,sans-Serif" font-size="14.00">category_id (FK)</text>
<text text-anchor="start" x="999" y="-1224.3" font-family="Helvetica,sans-Serif" font-size="14.00">user_id (FK)</text>
<polygon fill="none" stroke="black" points="991.5,-1214 991.5,-1513 1118.5,-1513 1118.5,-1214 991.5,-1214"/>
</g>
<!-- user&#45;&gt;product -->
<g id="edge3" class="edge">
<title>user&#45;&gt;product</title>
<path fill="none" stroke="#555555" d="M100.24,-1069.85C100.24,-1069.85 998,-1069.85 998,-1069.85 998,-1069.85 998,-1141.27 998,-1213.66"/>
<polygon fill="#555555" stroke="#555555" points="100.24,-1067.05 92.24,-1069.85 100.24,-1072.65 100.24,-1067.05"/>
<text text-anchor="middle" x="462.5" y="-1531.3" font-family="Helvetica,sans-Serif" font-size="14.00">changes</text>
<text text-anchor="middle" x="992.5" y="-1202.46" font-family="Helvetica,sans-Serif" font-size="14.00">N</text>
<text text-anchor="middle" x="97.24" y="-1058.65" font-family="Helvetica,sans-Serif" font-size="14.00">1</text>
</g>
<!-- pvar -->
<g id="node6" class="node">
<title>pvar</title>
<polygon fill="#6c8ebf" stroke="transparent" points="1332,-1842.5 1332,-1869.5 1548,-1869.5 1548,-1842.5 1332,-1842.5"/>
<text text-anchor="start" x="1376.5" y="-1853.3" font-family="Helvetica,sans-Serif" font-weight="bold" font-size="14.00" fill="white">ProductVariants</text>
<text text-anchor="start" x="1338" y="-1825.3" font-family="Helvetica,sans-Serif" font-size="14.00">id (PK)</text>
<text text-anchor="start" x="1338" y="-1798.3" font-family="Helvetica,sans-Serif" font-size="14.00">product_id (FK)</text>
<text text-anchor="start" x="1338" y="-1771.3" font-family="Helvetica,sans-Serif" font-size="14.00">sku</text>
<text text-anchor="start" x="1338" y="-1744.3" font-family="Helvetica,sans-Serif" font-size="14.00">stock</text>
<text text-anchor="start" x="1338" y="-1717.3" font-family="Helvetica,sans-Serif" font-size="14.00">price</text>
<text text-anchor="start" x="1338" y="-1690.3" font-family="Helvetica,sans-Serif" font-size="14.00">sales_price</text>
<text text-anchor="start" x="1338" y="-1663.3" font-family="Helvetica,sans-Serif" font-size="14.00">dimension_name_1..9_id (FK)</text>
<text text-anchor="start" x="1338" y="-1636.3" font-family="Helvetica,sans-Serif" font-size="14.00">dimension_value_1..9</text>
<text text-anchor="start" x="1338" y="-1609.3" font-family="Helvetica,sans-Serif" font-size="14.00">user_id (FK)</text>
<polygon fill="none" stroke="black" points="1331,-1598.5 1331,-1870.5 1549,-1870.5 1549,-1598.5 1331,-1598.5"/>
</g>
<!-- user&#45;&gt;pvar -->
<g id="edge4" class="edge">
<title>user&#45;&gt;pvar</title>
<path fill="none" stroke="#555555" d="M100.03,-1056.75C100.03,-1056.75 1350,-1056.75 1350,-1056.75 1350,-1056.75 1350,-1400.25 1350,-1598.16"/>
<polygon fill="#555555" stroke="#555555" points="100.03,-1053.95 92.03,-1056.75 100.03,-1059.55 100.03,-1053.95"/>
<text text-anchor="middle" x="680.5" y="-1825.3" font-family="Helvetica,sans-Serif" font-size="14.00">changes</text>
<text text-anchor="middle" x="1344.5" y="-1586.96" font-family="Helvetica,sans-Serif" font-size="14.00">N</text>
<text text-anchor="middle" x="97.03" y="-1045.55" font-family="Helvetica,sans-Serif" font-size="14.00">1</text>
</g>
<!-- pimg -->
<g id="node7" class="node">
<title>pimg</title>
<polygon fill="#6c8ebf" stroke="transparent" points="1370,-1417.5 1370,-1444.5 1511,-1444.5 1511,-1417.5 1370,-1417.5"/>
<text text-anchor="start" x="1381" y="-1428.3" font-family="Helvetica,sans-Serif" font-weight="bold" font-size="14.00" fill="white">ProductImages</text>
<text text-anchor="start" x="1376" y="-1400.3" font-family="Helvetica,sans-Serif" font-size="14.00">id (PK)</text>
<text text-anchor="start" x="1376" y="-1373.3" font-family="Helvetica,sans-Serif" font-size="14.00">product_id (FK)</text>
<text text-anchor="start" x="1376" y="-1346.3" font-family="Helvetica,sans-Serif" font-size="14.00">image_id (FK)</text>
<text text-anchor="start" x="1376" y="-1319.3" font-family="Helvetica,sans-Serif" font-size="14.00">number_in_gallery</text>
<text text-anchor="start" x="1376" y="-1292.3" font-family="Helvetica,sans-Serif" font-size="14.00">user_id (FK)</text>
<polygon fill="none" stroke="black" points="1368.5,-1281.5 1368.5,-1445.5 1511.5,-1445.5 1511.5,-1281.5 1368.5,-1281.5"/>
</g>
<!-- user&#45;&gt;pimg -->
<g id="edge5" class="edge">
<title>user&#45;&gt;pimg</title>
<path fill="none" stroke="#555555" d="M100.19,-1063.3C100.19,-1063.3 1129,-1063.3 1129,-1063.3 1129,-1063.3 1129,-1336.17 1129,-1336.17 1129,-1336.17 1276.41,-1336.17 1368.26,-1336.17"/>
<polygon fill="#555555" stroke="#555555" points="100.19,-1060.5 92.19,-1063.3 100.19,-1066.1 100.19,-1060.5"/>
<text text-anchor="middle" x="680.5" y="-1622.3" font-family="Helvetica,sans-Serif" font-size="14.00">changes</text>
<text text-anchor="middle" x="1362.76" y="-1324.97" font-family="Helvetica,sans-Serif" font-size="14.00">N</text>
<text text-anchor="middle" x="87.19" y="-1052.1" font-family="Helvetica,sans-Serif" font-size="14.00">1</text>
</g>
<!-- coupon -->
<g id="node8" class="node">
<title>coupon</title>
<polygon fill="#82b366" stroke="transparent" points="241,-995.5 241,-1022.5 352,-1022.5 352,-995.5 241,-995.5"/>
<text text-anchor="start" x="266.5" y="-1006.3" font-family="Helvetica,sans-Serif" font-weight="bold" font-size="14.00" fill="white">Coupon</text>
<text text-anchor="start" x="247" y="-978.3" font-family="Helvetica,sans-Serif" font-size="14.00">id (PK)</text>
<text text-anchor="start" x="247" y="-951.3" font-family="Helvetica,sans-Serif" font-size="14.00">code</text>
<text text-anchor="start" x="247" y="-924.3" font-family="Helvetica,sans-Serif" font-size="14.00">min_subtotal</text>
<text text-anchor="start" x="247" y="-897.3" font-family="Helvetica,sans-Serif" font-size="14.00">value</text>
<text text-anchor="start" x="247" y="-870.3" font-family="Helvetica,sans-Serif" font-size="14.00">type</text>
<text text-anchor="start" x="247" y="-843.3" font-family="Helvetica,sans-Serif" font-size="14.00">effective_from</text>
<text text-anchor="start" x="247" y="-816.3" font-family="Helvetica,sans-Serif" font-size="14.00">effective_to</text>
<text text-anchor="start" x="247" y="-789.3" font-family="Helvetica,sans-Serif" font-size="14.00">user_id (FK)</text>
<polygon fill="none" stroke="black" points="239.5,-779 239.5,-1024 352.5,-1024 352.5,-779 239.5,-779"/>
</g>
<!-- user&#45;&gt;coupon -->
<g id="edge6" class="edge">
<title>user&#45;&gt;coupon</title>
<path fill="none" stroke="#555555" d="M100.15,-1009.17C100.15,-1009.17 239.16,-1009.17 239.16,-1009.17"/>
<polygon fill="#555555" stroke="#555555" points="100.15,-1006.37 92.15,-1009.17 100.15,-1011.97 100.15,-1006.37"/>
<text text-anchor="middle" x="157.5" y="-949.3" font-family="Helvetica,sans-Serif" font-size="14.00">changes</text>
<text text-anchor="middle" x="233.66" y="-997.97" font-family="Helvetica,sans-Serif" font-size="14.00">N</text>
<text text-anchor="middle" x="97.15" y="-1012.97" font-family="Helvetica,sans-Serif" font-size="14.00">1</text>
</g>
<!-- cart -->
<g id="node9" class="node">
<title>cart</title>
<polygon fill="#82b366" stroke="transparent" points="587.5,-941.5 587.5,-968.5 774.5,-968.5 774.5,-941.5 587.5,-941.5"/>
<text text-anchor="start" x="664" y="-952.3" font-family="Helvetica,sans-Serif" font-weight="bold" font-size="14.00" fill="white">Cart</text>
<text text-anchor="start" x="593.5" y="-924.3" font-family="Helvetica,sans-Serif" font-size="14.00">id (PK)</text>
<text text-anchor="start" x="593.5" y="-897.3" font-family="Helvetica,sans-Serif" font-size="14.00">cart_number</text>
<text text-anchor="start" x="593.5" y="-870.3" font-family="Helvetica,sans-Serif" font-size="14.00">owner_id (FK, nullable)</text>
<text text-anchor="start" x="593.5" y="-843.3" font-family="Helvetica,sans-Serif" font-size="14.00">shipping_method</text>
<text text-anchor="start" x="593.5" y="-816.3" font-family="Helvetica,sans-Serif" font-size="14.00">user_id (FK, nullable)</text>
<text text-anchor="start" x="593.5" y="-789.3" font-family="Helvetica,sans-Serif" font-size="14.00">discount_id (FK, nullable)</text>
<polygon fill="none" stroke="black" points="586,-779 586,-970 775,-970 775,-779 586,-779"/>
</g>
<!-- user&#45;&gt;cart -->
<g id="edge7" class="edge">
<title>user&#45;&gt;cart</title>
<path fill="none" stroke="#555555" d="M100.3,-1037.1C100.3,-1037.1 606,-1037.1 606,-1037.1 606,-1037.1 606,-1005.42 606,-970.03"/>
<polygon fill="#555555" stroke="#555555" points="100.3,-1034.3 92.3,-1037.1 100.3,-1039.9 100.3,-1034.3"/>
<text text-anchor="middle" x="296" y="-731.3" font-family="Helvetica,sans-Serif" font-size="14.00">owns/changes</text>
<text text-anchor="middle" x="600.5" y="-973.83" font-family="Helvetica,sans-Serif" font-size="14.00">N</text>
<text text-anchor="middle" x="97.3" y="-1029.65" font-family="Helvetica,sans-Serif" font-size="14.00">1</text>
</g>
<!-- cartitem -->
<g id="node10" class="node">
<title>cartitem</title>
<polygon fill="#82b366" stroke="transparent" points="1361,-1109.5 1361,-1136.5 1520,-1136.5 1520,-1109.5 1361,-1109.5"/>
<text text-anchor="start" x="1405.5" y="-1120.3" font-family="Helvetica,sans-Serif" font-weight="bold" font-size="14.00" fill="white">CartItem</text>
<text text-anchor="start" x="1367" y="-1092.3" font-family="Helvetica,sans-Serif" font-size="14.00">id (PK)</text>
<text text-anchor="start" x="1367" y="-1065.3" font-family="Helvetica,sans-Serif" font-size="14.00">cart_id (FK)</text>
<text text-anchor="start" x="1367" y="-1038.3" font-family="Helvetica,sans-Serif" font-size="14.00">product_id (FK)</text>
<text text-anchor="start" x="1367" y="-1011.3" font-family="Helvetica,sans-Serif" font-size="14.00">qty</text>
<text text-anchor="start" x="1367" y="-984.3" font-family="Helvetica,sans-Serif" font-size="14.00">price</text>
<text text-anchor="start" x="1367" y="-957.3" font-family="Helvetica,sans-Serif" font-size="14.00">user_id (FK, nullable)</text>
<polygon fill="none" stroke="black" points="1359.5,-947 1359.5,-1138 1520.5,-1138 1520.5,-947 1359.5,-947"/>
</g>
<!-- user&#45;&gt;cartitem -->
<g id="edge8" class="edge">
<title>user&#45;&gt;cartitem</title>
<path fill="none" stroke="#555555" d="M100.38,-1050.2C100.38,-1050.2 1359.41,-1050.2 1359.41,-1050.2"/>
<polygon fill="#555555" stroke="#555555" points="100.38,-1047.4 92.38,-1050.2 100.38,-1053 100.38,-1047.4"/>
<text text-anchor="middle" x="680.5" y="-1046.3" font-family="Helvetica,sans-Serif" font-size="14.00">changes</text>
<text text-anchor="middle" x="1353.91" y="-1039" font-family="Helvetica,sans-Serif" font-size="14.00">N</text>
<text text-anchor="middle" x="97.38" y="-1039" font-family="Helvetica,sans-Serif" font-size="14.00">1</text>
</g>
<!-- shipping -->
<g id="node11" class="node">
<title>shipping</title>
<polygon fill="#82b366" stroke="transparent" points="224,-626.5 224,-653.5 368,-653.5 368,-626.5 224,-626.5"/>
<text text-anchor="start" x="262" y="-637.3" font-family="Helvetica,sans-Serif" font-weight="bold" font-size="14.00" fill="white">Shipping</text>
<text text-anchor="start" x="230" y="-609.3" font-family="Helvetica,sans-Serif" font-size="14.00">id (PK)</text>
<text text-anchor="start" x="230" y="-582.3" font-family="Helvetica,sans-Serif" font-size="14.00">title</text>
<text text-anchor="start" x="230" y="-555.3" font-family="Helvetica,sans-Serif" font-size="14.00">code</text>
<text text-anchor="start" x="230" y="-528.3" font-family="Helvetica,sans-Serif" font-size="14.00">text_html</text>
<text text-anchor="start" x="230" y="-501.3" font-family="Helvetica,sans-Serif" font-size="14.00">price</text>
<text text-anchor="start" x="230" y="-474.3" font-family="Helvetica,sans-Serif" font-size="14.00">discount_threshold</text>
<text text-anchor="start" x="230" y="-447.3" font-family="Helvetica,sans-Serif" font-size="14.00">price_discounted</text>
<text text-anchor="start" x="230" y="-420.3" font-family="Helvetica,sans-Serif" font-size="14.00">user_id (FK)</text>
<polygon fill="none" stroke="black" points="223,-410 223,-655 369,-655 369,-410 223,-410"/>
</g>
<!-- user&#45;&gt;shipping -->
<g id="edge9" class="edge">
<title>user&#45;&gt;shipping</title>
<path fill="none" stroke="#555555" d="M100.46,-994.33C100.46,-994.33 232,-994.33 232,-994.33 232,-994.33 232,-791.87 232,-655.05"/>
<polygon fill="#555555" stroke="#555555" points="100.46,-991.53 92.46,-994.33 100.46,-997.13 100.46,-991.53"/>
<text text-anchor="middle" x="157.5" y="-536.3" font-family="Helvetica,sans-Serif" font-size="14.00">changes</text>
<text text-anchor="middle" x="226.5" y="-658.85" font-family="Helvetica,sans-Serif" font-size="14.00">N</text>
<text text-anchor="middle" x="97.46" y="-983.13" font-family="Helvetica,sans-Serif" font-size="14.00">1</text>
</g>
<!-- status -->
<g id="node12" class="node">
<title>status</title>
<polygon fill="#d79b00" stroke="transparent" points="233,-271.5 233,-298.5 360,-298.5 360,-271.5 233,-271.5"/>
<text text-anchor="start" x="239" y="-282.3" font-family="Helvetica,sans-Serif" font-weight="bold" font-size="14.00" fill="white">OrderStatuses</text>
<text text-anchor="start" x="239" y="-254.3" font-family="Helvetica,sans-Serif" font-size="14.00">id (PK)</text>
<text text-anchor="start" x="239" y="-227.3" font-family="Helvetica,sans-Serif" font-size="14.00">code</text>
<text text-anchor="start" x="239" y="-200.3" font-family="Helvetica,sans-Serif" font-size="14.00">name</text>
<text text-anchor="start" x="239" y="-173.3" font-family="Helvetica,sans-Serif" font-size="14.00">description</text>
<text text-anchor="start" x="239" y="-146.3" font-family="Helvetica,sans-Serif" font-size="14.00">user_id (FK)</text>
<polygon fill="none" stroke="black" points="231.5,-135.5 231.5,-299.5 360.5,-299.5 360.5,-135.5 231.5,-135.5"/>
</g>
<!-- user&#45;&gt;status -->
<g id="edge10" class="edge">
<title>user&#45;&gt;status</title>
<path fill="none" stroke="#555555" d="M46,-971.31C46,-971.31 46,-217.5 46,-217.5 46,-217.5 157.22,-217.5 231.29,-217.5"/>
<polygon fill="#555555" stroke="#555555" points="43.2,-971.31 46,-979.31 48.8,-971.31 43.2,-971.31"/>
<text text-anchor="middle" x="157.5" y="-270.3" font-family="Helvetica,sans-Serif" font-size="14.00">changes</text>
<text text-anchor="middle" x="225.79" y="-206.3" font-family="Helvetica,sans-Serif" font-size="14.00">N</text>
<text text-anchor="middle" x="41" y="-968.11" font-family="Helvetica,sans-Serif" font-size="14.00">1</text>
</g>
<!-- ord -->
<g id="node13" class="node">
<title>ord</title>
<polygon fill="#d79b00" stroke="transparent" points="557.5,-270.5 557.5,-297.5 804.5,-297.5 804.5,-270.5 557.5,-270.5"/>
<text text-anchor="start" x="658" y="-281.3" font-family="Helvetica,sans-Serif" font-weight="bold" font-size="14.00" fill="white">Order</text>
<text text-anchor="start" x="563.5" y="-253.3" font-family="Helvetica,sans-Serif" font-size="14.00">id (PK)</text>
<text text-anchor="start" x="563.5" y="-226.3" font-family="Helvetica,sans-Serif" font-size="14.00">order_no</text>
<text text-anchor="start" x="563.5" y="-199.3" font-family="Helvetica,sans-Serif" font-size="14.00">owner_id (FK)</text>
<text text-anchor="start" x="563.5" y="-172.3" font-family="Helvetica,sans-Serif" font-size="14.00">status_id (FK)</text>
<text text-anchor="start" x="563.5" y="-145.3" font-family="Helvetica,sans-Serif" font-size="14.00">cart_no</text>
<text text-anchor="start" x="563.5" y="-118.3" font-family="Helvetica,sans-Serif" font-size="14.00">subtotal / total / vat_included</text>
<text text-anchor="start" x="563.5" y="-91.3" font-family="Helvetica,sans-Serif" font-size="14.00">billing_* / shipping_*</text>
<text text-anchor="start" x="563.5" y="-64.3" font-family="Helvetica,sans-Serif" font-size="14.00">shipping_method / shipping_price</text>
<text text-anchor="start" x="563.5" y="-37.3" font-family="Helvetica,sans-Serif" font-size="14.00">email / discount_amount</text>
<text text-anchor="start" x="563.5" y="-10.3" font-family="Helvetica,sans-Serif" font-size="14.00">user_id (FK)</text>
<polygon fill="none" stroke="black" points="556,0 556,-299 805,-299 805,0 556,0"/>
</g>
<!-- user&#45;&gt;ord -->
<g id="edge11" class="edge">
<title>user&#45;&gt;ord</title>
<path fill="none" stroke="#555555" d="M100.13,-1030.55C100.13,-1030.55 571,-1030.55 571,-1030.55 571,-1030.55 571,-550.96 571,-299.46"/>
<polygon fill="#555555" stroke="#555555" points="100.13,-1027.75 92.13,-1030.55 100.13,-1033.35 100.13,-1027.75"/>
<text text-anchor="middle" x="296" y="-88.3" font-family="Helvetica,sans-Serif" font-size="14.00">owns/changes</text>
<text text-anchor="middle" x="565.5" y="-303.26" font-family="Helvetica,sans-Serif" font-size="14.00">N</text>
<text text-anchor="middle" x="97.13" y="-1019.35" font-family="Helvetica,sans-Serif" font-size="14.00">1</text>
</g>
<!-- orderitem -->
<g id="node14" class="node">
<title>orderitem</title>
<polygon fill="#d79b00" stroke="transparent" points="1005,-416.5 1005,-443.5 1106,-443.5 1106,-416.5 1005,-416.5"/>
<text text-anchor="start" x="1014.5" y="-427.3" font-family="Helvetica,sans-Serif" font-weight="bold" font-size="14.00" fill="white">OrderItem</text>
<text text-anchor="start" x="1011" y="-399.3" font-family="Helvetica,sans-Serif" font-size="14.00">id (PK)</text>
<text text-anchor="start" x="1011" y="-372.3" font-family="Helvetica,sans-Serif" font-size="14.00">order_id (FK)</text>
<text text-anchor="start" x="1011" y="-345.3" font-family="Helvetica,sans-Serif" font-size="14.00">sku</text>
<text text-anchor="start" x="1011" y="-318.3" font-family="Helvetica,sans-Serif" font-size="14.00">item</text>
<text text-anchor="start" x="1011" y="-291.3" font-family="Helvetica,sans-Serif" font-size="14.00">quantity</text>
<text text-anchor="start" x="1011" y="-264.3" font-family="Helvetica,sans-Serif" font-size="14.00">unit_price</text>
<text text-anchor="start" x="1011" y="-237.3" font-family="Helvetica,sans-Serif" font-size="14.00">user_id (FK)</text>
<polygon fill="none" stroke="black" points="1003.5,-226.5 1003.5,-444.5 1106.5,-444.5 1106.5,-226.5 1003.5,-226.5"/>
</g>
<!-- user&#45;&gt;orderitem -->
<g id="edge12" class="edge">
<title>user&#45;&gt;orderitem</title>
<path fill="none" stroke="#555555" d="M100.31,-1043.65C100.31,-1043.65 1055,-1043.65 1055,-1043.65 1055,-1043.65 1055,-643.24 1055,-444.6"/>
<polygon fill="#555555" stroke="#555555" points="100.31,-1040.85 92.31,-1043.65 100.31,-1046.45 100.31,-1040.85"/>
<text text-anchor="middle" x="462.5" y="-358.3" font-family="Helvetica,sans-Serif" font-size="14.00">changes</text>
<text text-anchor="middle" x="1049.5" y="-448.4" font-family="Helvetica,sans-Serif" font-size="14.00">N</text>
<text text-anchor="middle" x="87.31" y="-1032.45" font-family="Helvetica,sans-Serif" font-size="14.00">1</text>
</g>
<!-- images&#45;&gt;category -->
<g id="edge13" class="edge">
<title>images&#45;&gt;category</title>
<path fill="none" stroke="#555555" d="M352.7,-1263.25C352.7,-1263.25 625.69,-1263.25 625.69,-1263.25"/>
<polygon fill="#555555" stroke="#555555" points="352.7,-1260.45 344.7,-1263.25 352.7,-1266.05 352.7,-1260.45"/>
<text text-anchor="middle" x="462.5" y="-1292.3" font-family="Helvetica,sans-Serif" font-size="14.00">image</text>
<text text-anchor="middle" x="620.19" y="-1252.05" font-family="Helvetica,sans-Serif" font-size="14.00">N</text>
<text text-anchor="middle" x="349.7" y="-1252.05" font-family="Helvetica,sans-Serif" font-size="14.00">1</text>
</g>
<!-- images&#45;&gt;product -->
<g id="edge14" class="edge">
<title>images&#45;&gt;product</title>
<path fill="none" stroke="#555555" d="M352.63,-1234.25C352.63,-1234.25 991.43,-1234.25 991.43,-1234.25"/>
<polygon fill="#555555" stroke="#555555" points="352.63,-1231.45 344.63,-1234.25 352.63,-1237.05 352.63,-1231.45"/>
<text text-anchor="middle" x="680.5" y="-1207.3" font-family="Helvetica,sans-Serif" font-size="14.00">main image</text>
<text text-anchor="middle" x="985.93" y="-1223.05" font-family="Helvetica,sans-Serif" font-size="14.00">N</text>
<text text-anchor="middle" x="349.63" y="-1223.05" font-family="Helvetica,sans-Serif" font-size="14.00">1</text>
</g>
<!-- images&#45;&gt;pimg -->
<g id="edge19" class="edge">
<title>images&#45;&gt;pimg</title>
<path fill="none" stroke="#555555" d="M352.79,-1176C352.79,-1176 1440,-1176 1440,-1176 1440,-1176 1440,-1230.88 1440,-1281.26"/>
<polygon fill="#555555" stroke="#555555" points="352.79,-1173.2 344.79,-1176 352.79,-1178.8 352.79,-1173.2"/>
<text text-anchor="middle" x="888.5" y="-1125.3" font-family="Helvetica,sans-Serif" font-size="14.00">gallery image</text>
<text text-anchor="middle" x="1434.5" y="-1270.06" font-family="Helvetica,sans-Serif" font-size="14.00">N</text>
<text text-anchor="middle" x="349.79" y="-1164.8" font-family="Helvetica,sans-Serif" font-size="14.00">1</text>
</g>
<!-- category&#45;&gt;product -->
<g id="edge15" class="edge">
<title>category&#45;&gt;product</title>
<path fill="none" stroke="#555555" d="M743.36,-1363.5C743.36,-1363.5 991.21,-1363.5 991.21,-1363.5"/>
<polygon fill="#555555" stroke="#555555" points="743.36,-1360.7 735.36,-1363.5 743.36,-1366.3 743.36,-1360.7"/>
<text text-anchor="middle" x="888.5" y="-1367.3" font-family="Helvetica,sans-Serif" font-size="14.00">contains</text>
<text text-anchor="middle" x="985.71" y="-1352.3" font-family="Helvetica,sans-Serif" font-size="14.00">N</text>
<text text-anchor="middle" x="740.36" y="-1352.3" font-family="Helvetica,sans-Serif" font-size="14.00">1</text>
</g>
<!-- product&#45;&gt;pvar -->
<g id="edge16" class="edge">
<title>product&#45;&gt;pvar</title>
<path fill="none" stroke="#555555" d="M1126.83,-1479.25C1126.83,-1479.25 1341,-1479.25 1341,-1479.25 1341,-1479.25 1341,-1537.46 1341,-1598.28"/>
<polygon fill="#555555" stroke="#555555" points="1126.83,-1476.45 1118.83,-1479.25 1126.83,-1482.05 1126.83,-1476.45"/>
<text text-anchor="middle" x="1234.5" y="-1682.3" font-family="Helvetica,sans-Serif" font-size="14.00">has variants</text>
<text text-anchor="middle" x="1335.5" y="-1587.08" font-family="Helvetica,sans-Serif" font-size="14.00">N</text>
<text text-anchor="middle" x="1123.83" y="-1468.05" font-family="Helvetica,sans-Serif" font-size="14.00">1</text>
</g>
<!-- product&#45;&gt;pimg -->
<g id="edge18" class="edge">
<title>product&#45;&gt;pimg</title>
<path fill="none" stroke="#555555" d="M1126.57,-1390.83C1126.57,-1390.83 1368.47,-1390.83 1368.47,-1390.83"/>
<polygon fill="#555555" stroke="#555555" points="1126.57,-1388.03 1118.57,-1390.83 1126.57,-1393.63 1126.57,-1388.03"/>
<text text-anchor="middle" x="1234.5" y="-1367.3" font-family="Helvetica,sans-Serif" font-size="14.00">gallery</text>
<text text-anchor="middle" x="1362.97" y="-1379.63" font-family="Helvetica,sans-Serif" font-size="14.00">N</text>
<text text-anchor="middle" x="1123.57" y="-1379.63" font-family="Helvetica,sans-Serif" font-size="14.00">1</text>
</g>
<!-- product&#45;&gt;cartitem -->
<g id="edge22" class="edge">
<title>product&#45;&gt;cartitem</title>
<path fill="none" stroke="#555555" d="M1113,-1205.72C1113,-1205.72 1113,-1112.25 1113,-1112.25 1113,-1112.25 1262.33,-1112.25 1359.17,-1112.25"/>
<polygon fill="#555555" stroke="#555555" points="1110.2,-1205.72 1113,-1213.72 1115.8,-1205.72 1110.2,-1205.72"/>
<text text-anchor="middle" x="1234.5" y="-1106.3" font-family="Helvetica,sans-Serif" font-size="14.00">selected product</text>
<text text-anchor="middle" x="1353.67" y="-1101.05" font-family="Helvetica,sans-Serif" font-size="14.00">N</text>
<text text-anchor="middle" x="1108" y="-1202.52" font-family="Helvetica,sans-Serif" font-size="14.00">1</text>
</g>
<!-- pdim -->
<g id="node5" class="node">
<title>pdim</title>
<polygon fill="#6c8ebf" stroke="transparent" points="973,-1737.5 973,-1764.5 1137,-1764.5 1137,-1737.5 973,-1737.5"/>
<text text-anchor="start" x="979" y="-1748.3" font-family="Helvetica,sans-Serif" font-weight="bold" font-size="14.00" fill="white">ProductDimensions</text>
<text text-anchor="start" x="979" y="-1720.3" font-family="Helvetica,sans-Serif" font-size="14.00">id (PK)</text>
<text text-anchor="start" x="979" y="-1693.3" font-family="Helvetica,sans-Serif" font-size="14.00">name</text>
<polygon fill="none" stroke="black" points="972,-1683 972,-1766 1138,-1766 1138,-1683 972,-1683"/>
</g>
<!-- pdim&#45;&gt;pvar -->
<g id="edge17" class="edge">
<title>pdim&#45;&gt;pvar</title>
<path fill="none" stroke="#555555" d="M1146.07,-1724.5C1146.07,-1724.5 1330.76,-1724.5 1330.76,-1724.5"/>
<polygon fill="#555555" stroke="#555555" points="1146.07,-1721.7 1138.07,-1724.5 1146.07,-1727.3 1146.07,-1721.7"/>
<text text-anchor="middle" x="1234.5" y="-1738.3" font-family="Helvetica,sans-Serif" font-size="14.00">used by dim_1..9</text>
<text text-anchor="middle" x="1325.26" y="-1713.3" font-family="Helvetica,sans-Serif" font-size="14.00">N</text>
<text text-anchor="middle" x="1143.07" y="-1713.3" font-family="Helvetica,sans-Serif" font-size="14.00">1</text>
</g>
<!-- coupon&#45;&gt;cart -->
<g id="edge20" class="edge">
<title>coupon&#45;&gt;cart</title>
<path fill="none" stroke="#555555" stroke-dasharray="5,2" d="M360.73,-874.5C360.73,-874.5 585.87,-874.5 585.87,-874.5"/>
<polygon fill="#555555" stroke="#555555" points="360.73,-871.7 352.73,-874.5 360.73,-877.3 360.73,-871.7"/>
<text text-anchor="middle" x="462.5" y="-892.3" font-family="Helvetica,sans-Serif" font-size="14.00">applied discount</text>
<text text-anchor="middle" x="580.37" y="-863.3" font-family="Helvetica,sans-Serif" font-size="14.00">N</text>
<text text-anchor="middle" x="357.73" y="-863.3" font-family="Helvetica,sans-Serif" font-size="14.00">1</text>
</g>
<!-- cart&#45;&gt;cartitem -->
<g id="edge21" class="edge">
<title>cart&#45;&gt;cartitem</title>
<path fill="none" stroke="#555555" d="M783.16,-958.5C783.16,-958.5 1359.23,-958.5 1359.23,-958.5"/>
<polygon fill="#555555" stroke="#555555" points="783.16,-955.7 775.16,-958.5 783.16,-961.3 783.16,-955.7"/>
<text text-anchor="middle" x="1055" y="-927.3" font-family="Helvetica,sans-Serif" font-size="14.00">contains</text>
<text text-anchor="middle" x="1353.73" y="-947.3" font-family="Helvetica,sans-Serif" font-size="14.00">N</text>
<text text-anchor="middle" x="780.16" y="-947.3" font-family="Helvetica,sans-Serif" font-size="14.00">1</text>
</g>
<!-- status&#45;&gt;ord -->
<g id="edge23" class="edge">
<title>status&#45;&gt;ord</title>
<path fill="none" stroke="#555555" d="M368.79,-217.25C368.79,-217.25 555.88,-217.25 555.88,-217.25"/>
<polygon fill="#555555" stroke="#555555" points="368.79,-214.45 360.79,-217.25 368.79,-220.05 368.79,-214.45"/>
<text text-anchor="middle" x="462.5" y="-187.3" font-family="Helvetica,sans-Serif" font-size="14.00">status</text>
<text text-anchor="middle" x="550.38" y="-206.05" font-family="Helvetica,sans-Serif" font-size="14.00">N</text>
<text text-anchor="middle" x="365.79" y="-206.05" font-family="Helvetica,sans-Serif" font-size="14.00">1</text>
</g>
<!-- ord&#45;&gt;orderitem -->
<g id="edge24" class="edge">
<title>ord&#45;&gt;orderitem</title>
<path fill="none" stroke="#555555" d="M813.2,-262.75C813.2,-262.75 1003.25,-262.75 1003.25,-262.75"/>
<polygon fill="#555555" stroke="#555555" points="813.2,-259.95 805.2,-262.75 813.2,-265.55 813.2,-259.95"/>
<text text-anchor="middle" x="888.5" y="-236.3" font-family="Helvetica,sans-Serif" font-size="14.00">contains</text>
<text text-anchor="middle" x="997.75" y="-251.55" font-family="Helvetica,sans-Serif" font-size="14.00">N</text>
<text text-anchor="middle" x="810.2" y="-251.55" font-family="Helvetica,sans-Serif" font-size="14.00">1</text>
</g>
</g>
</svg>
